# xmcd
# Copyright (C) 1995-1998 Ti Kan
#
# Track frame offsets:
#       150
#       17263
#       35059
#       51664
#       66354
#       83831
#       102443
#       119280
#       140354
#       154997
#       175649
#       192522
#
# Disc length: 2808 seconds
#
# Revision: 0
# Processed by: cddbd v1.4b42PL1 Copyright (c) Steve Scherf et al.
# Submitted via: CD-Transfer v1.0
#
DISCID=a60af60c
DTITLE=Andy Portmann - Only With A Smile
DYEAR=2001
DGENRE=
TTITLE0=Only With A Smile
TTITLE1=Magic
TTITLE2=The Autumn Song (Fall In Love)
TTITLE3=Grandma
TTITLE4=Now It's The Time
TTITLE5=Psychedelic Answers
TTITLE6=Can We Go On
TTITLE7=Waiting
TTITLE8=The Door
TTITLE9=Voices
TTITLE10=The World
TTITLE11=Jetzt Ist Die Zeit
EXTD=
EXTT0=
EXTT1=
EXTT2=
EXTT3=
EXTT4=
EXTT5=
EXTT6=
EXTT7=
EXTT8=
EXTT9=
EXTT10=
EXTT11=
PLAYORDER=
